name analog
datacolumns 19
datarows 47
range 0.162 0.185
endheader
time	ground_force_vx	ground_force_vy	ground_force_vz	ground_force_px	ground_force_py	ground_force_pz	l_ground_force_vx	l_ground_force_vy	l_ground_force_vz	l_ground_force_px	l_ground_force_py	l_ground_force_pz	ground_torque_x	ground_torque_y	ground_torque_z	l_ground_torque_x	l_ground_torque_y	l_ground_torque_z
0.162	-0.0	-0.0	-0.0	9.609992980957031	59.5143928527832	-398.8974304199219	8.484240531921387	-32.5588493347168	-364.8348083496094	-0.0	-0.0	-0.0	-0.0	-0.0	-0.0	94027.1484375	-36928.7578125	-2445.385986328125
0.1625	-0.0	-0.0	-0.0	9.990437507629396	58.73213195800781	-400.6723327636719	7.88027811050415	-33.213348388671875	-368.6480712890625	-0.0	-0.0	-0.0	-0.0	-0.0	-0.0	94710.9296875	-36512.390625	-2718.281494140625
0.163	-0.0	-0.0	-0.0	9.583072662353516	57.886680603027344	-402.9151611328125	7.022674083709717	-33.63472366333008	-373.5076293945313	-0.0	-0.0	-0.0	-0.0	-0.0	-0.0	95551.625	-36218.921875	-3054.76513671875
0.1635	-0.0	-0.0	-0.0	9.386475563049316	56.43376922607422	-404.55364990234375	6.076646327972412	-33.76219177246094	-375.894775390625	-0.0	-0.0	-0.0	-0.0	-0.0	-0.0	96243.8828125	-35794.42578125	-3342.164306640625
0.164	-0.0	-0.0	-0.0	9.920851707458496	56.44475936889648	-408.302734375	5.170438766479492	-33.41070556640625	-378.9287414550781	-0.0	-0.0	-0.0	-0.0	-0.0	-0.0	96578.46875	-35780.15625	-3617.576171875
0.1645	-0.0	-0.0	-0.0	9.60641384124756	55.69697189331055	-408.4470520019531	4.481451988220215	-33.20107650756836	-379.7648315429688	-0.0	-0.0	-0.0	-0.0	-0.0	-0.0	96908.8984375	-35012.015625	-4003.542724609375
0.165	-0.0	-0.0	-0.0	9.580500602722168	55.36888885498047	-410.4708862304688	4.270812034606934	-32.67900085449219	-380.2882385253906	-0.0	-0.0	-0.0	-0.0	-0.0	-0.0	97118.6328125	-34886.47265625	-4113.732421875
0.1655	-0.0	-0.0	-0.0	9.072288513183594	55.13181686401367	-412.7415161132813	4.25511360168457	-32.545440673828125	-381.8017883300781	-0.0	-0.0	-0.0	-0.0	-0.0	-0.0	97643.8515625	-34584.609375	-4182.462890625
0.166	-0.0	-0.0	-0.0	8.455344200134277	54.49644470214844	-410.748291015625	4.346828460693359	-32.24322891235352	-383.1433715820313	-0.0	-0.0	-0.0	-0.0	-0.0	-0.0	97865.3984375	-34391.140625	-4247.05615234375
0.1665	-0.0	-0.0	-0.0	8.208566665649414	54.27642440795898	-413.0734252929688	4.385536670684815	-31.80649185180664	-384.3963623046875	-0.0	-0.0	-0.0	-0.0	-0.0	-0.0	98131.8125	-33908.78515625	-4373.46484375
0.167	-0.0	-0.0	-0.0	7.896726608276367	54.109413146972656	-414.8719482421875	4.521482467651367	-31.45270538330078	-385.1650085449219	-0.0	-0.0	-0.0	-0.0	-0.0	-0.0	98056.4453125	-33766.56640625	-4415.12939453125
0.1675	-0.0	-0.0	-0.0	7.463391304016113	53.59098052978516	-416.61279296875	4.657316207885742	-30.86185073852539	-385.6893615722656	-0.0	-0.0	-0.0	-0.0	-0.0	-0.0	98250.3125	-33498.9921875	-4458.07275390625
0.168	-0.0	-0.0	-0.0	7.205156326293945	53.44146728515625	-416.1089782714844	5.140128135681152	-30.44492530822754	-385.6894836425781	-0.0	-0.0	-0.0	-0.0	-0.0	-0.0	98082.546875	-33049.6796875	-4514.71630859375
0.1685	-0.0	-0.0	-0.0	6.581852436065674	52.70491027832031	-418.9852294921875	5.273372650146484	-30.243675231933597	-385.0157470703125	-0.0	-0.0	-0.0	-0.0	-0.0	-0.0	98172.8984375	-32820.203125	-4570.81787109375
0.169	-0.0	-0.0	-0.0	6.7197136878967285	52.172645568847656	-417.8118896484375	5.393378734588623	-30.086593627929688	-385.5857849121094	-0.0	-0.0	-0.0	-0.0	-0.0	-0.0	98166.0234375	-32460.970703125	-4606.95556640625
0.1695	-0.0	-0.0	-0.0	6.389477729797363	51.76678466796875	-417.74224853515625	5.333661079406738	-30.24134635925293	-386.262451171875	-0.0	-0.0	-0.0	-0.0	-0.0	-0.0	98218.90625	-32037.2109375	-4784.6123046875
0.17	-0.0	-0.0	-0.0	5.856635093688965	50.693092346191406	-415.9403076171875	5.202912330627441	-30.674171447753903	-386.8599853515625	-0.0	-0.0	-0.0	-0.0	-0.0	-0.0	98244.140625	-31693.0	-4966.9013671875
0.1705	-0.0	-0.0	-0.0	5.497445583343506	50.37984848022461	-417.82525634765625	5.242688179016113	-30.713823318481445	-386.03558349609375	-0.0	-0.0	-0.0	-0.0	-0.0	-0.0	98033.671875	-31459.921875	-5037.31298828125
0.171	-0.0	-0.0	-0.0	5.6733503341674805	49.601070404052734	-417.09716796875	5.340150833129883	-30.53449821472168	-385.751708984375	-0.0	-0.0	-0.0	-0.0	-0.0	-0.0	97782.203125	-30945.224609375	-5070.68115234375
0.1715	-0.0	-0.0	-0.0	6.023735046386719	49.42082595825195	-417.69281005859375	5.657200813293457	-30.45850372314453	-384.2488098144531	-0.0	-0.0	-0.0	-0.0	-0.0	-0.0	97662.9140625	-30424.091796875	-5121.37890625
0.17200000000000001	-0.0	-0.0	-0.0	6.477479457855225	48.7581901550293	-415.5852355957031	5.626898288726807	-30.17900848388672	-383.3973083496094	-0.0	-0.0	-0.0	-0.0	-0.0	-0.0	97531.5546875	-30167.47265625	-5197.32080078125
0.17250000000000001	-0.0	-0.0	-0.0	6.395904064178467	48.42290496826172	-415.677978515625	5.9144463539123535	-30.259567260742188	-384.24114990234375	-0.0	-0.0	-0.0	-0.0	-0.0	-0.0	97435.078125	-29654.302734375	-5401.14111328125
0.17300000000000001	-0.0	-0.0	-0.0	6.616981506347656	47.96748352050781	-414.4705200195313	5.766105175018311	-30.17713928222656	-383.093017578125	-0.0	-0.0	-0.0	-0.0	-0.0	-0.0	97205.0703125	-29114.16015625	-5566.70849609375
0.17350000000000002	-0.0	-0.0	-0.0	6.529409408569336	47.67425537109375	-414.015380859375	5.43358325958252	-30.273008346557617	-383.4046020507813	-0.0	-0.0	-0.0	-0.0	-0.0	-0.0	97046.640625	-28541.82421875	-5700.58154296875
0.17400000000000002	-0.0	-0.0	-0.0	6.906092166900635	47.47883224487305	-414.4993896484375	4.87622594833374	-30.501373291015625	-381.7654418945313	-0.0	-0.0	-0.0	-0.0	-0.0	-0.0	96606.1328125	-28017.681640625	-5937.08740234375
0.17450000000000002	-0.0	-0.0	-0.0	7.155869007110596	46.815040588378906	-415.1719055175781	4.974695205688477	-30.075592041015625	-380.8071594238281	-0.0	-0.0	-0.0	-0.0	-0.0	-0.0	95965.0390625	-27620.888671875	-6094.05908203125
0.17500000000000002	-0.0	-0.0	-0.0	7.451857566833496	46.46340560913086	-415.6981201171875	5.161764144897461	-29.808568954467773	-378.6549072265625	-0.0	-0.0	-0.0	-0.0	-0.0	-0.0	95297.859375	-26890.3359375	-6178.66015625
0.17550000000000002	-0.0	-0.0	-0.0	7.860818386077881	46.31460189819336	-416.30865478515625	5.34482479095459	-29.452899932861328	-376.3233947753906	-0.0	-0.0	-0.0	-0.0	-0.0	-0.0	94825.390625	-26275.84765625	-6195.8623046875
0.176	-0.0	-0.0	-0.0	8.949165344238281	46.28433990478516	-416.1476440429688	5.205860614776611	-28.795101165771484	-374.4098510742188	-0.0	-0.0	-0.0	-0.0	-0.0	-0.0	94103.71875	-25793.0703125	-6390.7685546875
0.1765	-0.0	-0.0	-0.0	9.522168159484863	46.53424072265625	-416.5368041992188	5.314615249633789	-28.63384246826172	-373.6560668945313	-0.0	-0.0	-0.0	-0.0	-0.0	-0.0	93943.3671875	-25344.7578125	-6527.03076171875
0.177	-0.0	-0.0	-0.0	9.544384002685549	46.4692611694336	-415.39166259765625	5.171769142150879	-28.425498962402344	-373.2426452636719	-0.0	-0.0	-0.0	-0.0	-0.0	-0.0	93811.0859375	-24875.26171875	-6668.5
0.1775	-0.0	-0.0	-0.0	9.415759086608888	46.37731552124024	-413.9021301269531	4.812085151672363	-28.350069046020508	-372.8364562988281	-0.0	-0.0	-0.0	-0.0	-0.0	-0.0	93651.46875	-24139.05859375	-6942.64306640625
0.178	-0.0	-0.0	-0.0	9.336822509765623	45.992919921875	-414.0403137207031	4.524250030517578	-28.11333656311035	-373.3442687988281	-0.0	-0.0	-0.0	-0.0	-0.0	-0.0	93278.3515625	-23603.19921875	-7113.72705078125
0.1785	-0.0	-0.0	-0.0	8.592602729797363	45.835693359375	-415.2991638183594	4.022325038909912	-28.234397888183597	-371.5885620117188	-0.0	-0.0	-0.0	-0.0	-0.0	-0.0	93353.4375	-23116.759765625	-7368.19580078125
0.179	-0.0	-0.0	-0.0	8.324047088623047	46.22786712646485	-413.80474853515625	3.5478720664978027	-28.24744987487793	-371.90765380859375	-0.0	-0.0	-0.0	-0.0	-0.0	-0.0	93261.0859375	-22599.384765625	-7622.9091796875
0.1795	-0.0	-0.0	-0.0	7.634380340576172	45.952735900878906	-414.5963745117188	2.8300023078918457	-28.417217254638672	-373.1864013671875	-0.0	-0.0	-0.0	-0.0	-0.0	-0.0	93490.6796875	-22095.802734375	-7937.4130859375
0.18	-0.0	-0.0	-0.0	7.077701091766357	45.694854736328125	-412.982421875	2.157265901565552	-28.40987014770508	-372.4337768554688	-0.0	-0.0	-0.0	-0.0	-0.0	-0.0	93468.2421875	-21600.701171875	-8113.94384765625
0.1805	-0.0	-0.0	-0.0	6.809131622314453	45.73924255371094	-411.80908203125	1.352478265762329	-28.888999938964844	-374.0296020507813	-0.0	-0.0	-0.0	-0.0	-0.0	-0.0	93506.3203125	-21247.12890625	-8460.869140625
0.181	-0.0	-0.0	-0.0	6.022073745727539	45.45689392089844	-412.5101318359375	0.8578437566757202	-29.485183715820312	-374.6961669921875	-0.0	-0.0	-0.0	-0.0	-0.0	-0.0	93649.7265625	-20750.875	-8737.8681640625
0.1815	-0.0	-0.0	-0.0	5.390282154083252	45.129920959472656	-410.83740234375	0.1186092272400856	-30.080717086791992	-374.8437194824219	-0.0	-0.0	-0.0	-0.0	-0.0	-0.0	93726.625	-20515.205078125	-8911.732421875
0.182	-0.0	-0.0	-0.0	4.817635536193848	44.59527206420898	-410.1600036621094	-0.5915528535842896	-30.117694854736328	-375.8047180175781	-0.0	-0.0	-0.0	-0.0	-0.0	-0.0	93982.3984375	-20026.025390625	-9154.4638671875
0.1825	-0.0	-0.0	-0.0	4.646500110626221	44.6319694519043	-410.4243774414063	-1.1679314374923706	-30.735923767089844	-377.141845703125	-0.0	-0.0	-0.0	-0.0	-0.0	-0.0	93891.109375	-19703.68359375	-9352.78125
0.183	-0.0	-0.0	-0.0	4.148203372955322	44.476173400878906	-410.5721740722656	-1.877331018447876	-31.531126022338867	-378.3634033203125	-0.0	-0.0	-0.0	-0.0	-0.0	-0.0	94084.203125	-19340.15625	-9561.154296875
0.1835	-0.0	-0.0	-0.0	3.784177303314209	44.38727569580078	-409.3943786621094	-2.1660172939300537	-31.884952545166016	-379.5849304199219	-0.0	-0.0	-0.0	-0.0	-0.0	-0.0	94600.03125	-19055.640625	-9754.2626953125
0.184	-0.0	-0.0	-0.0	3.657630920410156	44.00042343139648	-408.5086364746094	-2.8681130409240723	-32.354976654052734	-381.0423889160156	-0.0	-0.0	-0.0	-0.0	-0.0	-0.0	95012.234375	-18851.44140625	-9848.6962890625
0.1845	-0.0	-0.0	-0.0	3.397521495819092	43.93377304077149	-409.4582824707031	-3.2466211318969727	-32.76634216308594	-382.5841369628906	-0.0	-0.0	-0.0	-0.0	-0.0	-0.0	95238.828125	-18600.9921875	-10098.708984375
0.185	-0.0	-0.0	-0.0	3.167929172515869	43.74829864501953	-407.9292907714844	-3.903852939605713	-32.928443908691406	-383.1923828125	-0.0	-0.0	-0.0	-0.0	-0.0	-0.0	95539.0625	-18375.724609375	-10195.708984375
